<svg version="1.0" xmlns="http://www.w3.org/2000/svg" width="700pt" height="700pt" viewBox="0 0 700 700"><g transform="translate(0.000000,700.000000) scale(0.100000,-0.100000)" fill="#000" stroke="none"><path d="M1431 6921c-278-195-454-468-461-717-1-33-1-1264-1-2736l1-2678h2635 2635v2685 2685h-80-80v4e2 4e2H4818c-695 0-1724 3-2288 6l-1025 6-74-51zm4259-393c0-32 61-315 75-350 7-17-104-18-2235-18H1288l6 38c19 105 107 234 214 312l67 50h2058 2057v-32zm340-3048V1010H3605 1180v2470 2470h2425 2425V3480z"/><path d="M1250 3480V1110h30 30v2370 2370h-30-30V3480z"/><path d="M2697 5013c-27-86-80-242-118-347-39-105-73-198-76-207-4-14 11-18 94-28 54-7 114-15 133-18 33-4 36-3 48 31l13 36h710c390 0 709-3 709-7 0-5-9-39-18-78l-18-70-1122-3-1123-2 3-98 3-97 1648-3 1647-2v1e2 1e2h-390c-214 0-390 2-390 4 0 3 18 74 40 158 47 184 102 452 98 481-3 19-15 24-1e2 38-54 8-103 12-110 7-7-4-327-8-711-8h-698l7 23c30 94 33 108 21 112-18 6-212 35-233 35-16 0-27-28-67-157zm1593-2e2c-1-5-9-42-18-83l-18-75-697-3c-383-1-697 1-697 5 0 5 12 43 26 85l26 78h689c379 0 689-3 689-7z"/><path d="M2030 3690v-270h120 120v180 180h1305 1305v-180-180h125 125v270 270H3580 2030v-270z"/><path d="M2470 3190v-430h480 480v-75-75h-735-735v-105-105h588l587-1-60-31c-251-130-680-265-1040-329-71-12-132-24-133-25-2-1 19-32 47-69 28-37 58-80 67-97 14-28 18-29 57-23 88 15 405 98 535 141 281 93 555 218 732 335l90 58 2-282 3-282 138-3 137-3v296c0 162 4 295 8 295 5 0 17-9 27-20 33-37 209-148 336-213 278-142 608-246 1015-320 30-6 34-2 69 51 21 31 56 78 77 105 22 26 36 47 31 47-33 0-312 46-423 70-298 63-608 169-780 268l-55 32h593 592v105 105h-745-745v75 75h485 485v430 430H3575 2470v-430zm960 170v-90h-355-355v90 90h355 355v-90zm980 0v-90h-350-350v90 90h350 350v-90zm-980-340v-90h-355-355v90 90h355 355v-90zm980 0v-90h-350-350v90 90h350 350v-90z"/></g></svg>