<?xml version="1.0" standalone="no"?>
<!DOCTYPE svg PUBLIC "-//W3C//DTD SVG 20010904//EN"
 "http://www.w3.org/TR/2001/REC-SVG-20010904/DTD/svg10.dtd">
<svg version="1.0" xmlns="http://www.w3.org/2000/svg"
 width="700.000000pt" height="700.000000pt" viewBox="0 0 700.000000 700.000000"
 preserveAspectRatio="xMidYMid meet">
<metadata>
Created by potrace 1.14, written by Peter Selinger 2001-2017
</metadata>
<g transform="translate(0.000000,700.000000) scale(0.100000,-0.100000)"
fill="#000000" stroke="none">
<path d="M1431 6921 c-278 -195 -454 -468 -461 -717 -1 -33 -1 -1264 -1 -2736
l1 -2678 2635 0 2635 0 0 2685 0 2685 -80 0 -80 0 0 400 0 400 -1262 0 c-695
0 -1724 3 -2288 6 l-1025 6 -74 -51z m4259 -393 c0 -32 61 -315 75 -350 7 -17
-104 -18 -2235 -18 l-2242 0 6 38 c19 105 107 234 214 312 l67 50 2058 0 2057
0 0 -32z m340 -3048 l0 -2470 -2425 0 -2425 0 0 2470 0 2470 2425 0 2425 0 0
-2470z"/>
<path d="M1250 3480 l0 -2370 30 0 30 0 0 2370 0 2370 -30 0 -30 0 0 -2370z"/>
<path d="M2697 5013 c-27 -86 -80 -242 -118 -347 -39 -105 -73 -198 -76 -207
-4 -14 11 -18 94 -28 54 -7 114 -15 133 -18 33 -4 36 -3 48 31 l13 36 710 0
c390 0 709 -3 709 -7 0 -5 -9 -39 -18 -78 l-18 -70 -1122 -3 -1123 -2 3 -98 3
-97 1648 -3 1647 -2 0 100 0 100 -390 0 c-214 0 -390 2 -390 4 0 3 18 74 40
158 47 184 102 452 98 481 -3 19 -15 24 -100 38 -54 8 -103 12 -110 7 -7 -4
-327 -8 -711 -8 l-698 0 7 23 c30 94 33 108 21 112 -18 6 -212 35 -233 35 -16
0 -27 -28 -67 -157z m1593 -200 c-1 -5 -9 -42 -18 -83 l-18 -75 -697 -3 c-383
-1 -697 1 -697 5 0 5 12 43 26 85 l26 78 689 0 c379 0 689 -3 689 -7z"/>
<path d="M2030 3690 l0 -270 120 0 120 0 0 180 0 180 1305 0 1305 0 0 -180 0
-180 125 0 125 0 0 270 0 270 -1550 0 -1550 0 0 -270z"/>
<path d="M2470 3190 l0 -430 480 0 480 0 0 -75 0 -75 -735 0 -735 0 0 -105 0
-105 588 0 587 -1 -60 -31 c-251 -130 -680 -265 -1040 -329 -71 -12 -132 -24
-133 -25 -2 -1 19 -32 47 -69 28 -37 58 -80 67 -97 14 -28 18 -29 57 -23 88
15 405 98 535 141 281 93 555 218 732 335 l90 58 2 -282 3 -282 138 -3 137 -3
0 296 c0 162 4 295 8 295 5 0 17 -9 27 -20 33 -37 209 -148 336 -213 278 -142
608 -246 1015 -320 30 -6 34 -2 69 51 21 31 56 78 77 105 22 26 36 47 31 47
-33 0 -312 46 -423 70 -298 63 -608 169 -780 268 l-55 32 593 0 592 0 0 105 0
105 -745 0 -745 0 0 75 0 75 485 0 485 0 0 430 0 430 -1105 0 -1105 0 0 -430z
m960 170 l0 -90 -355 0 -355 0 0 90 0 90 355 0 355 0 0 -90z m980 0 l0 -90
-350 0 -350 0 0 90 0 90 350 0 350 0 0 -90z m-980 -340 l0 -90 -355 0 -355 0
0 90 0 90 355 0 355 0 0 -90z m980 0 l0 -90 -350 0 -350 0 0 90 0 90 350 0
350 0 0 -90z"/>
</g>
</svg>
